<?xml version="1.0" encoding="UTF-8"?>
<!DOCTYPE svg PUBLIC "-//W3C//DTD SVG 1.1//EN" "http://www.w3.org/Graphics/SVG/1.1/DTD/svg11.dtd">
<svg xmlns="http://www.w3.org/2000/svg" version="1.1" width="274px" height="184px" style="shape-rendering:geometricPrecision; text-rendering:geometricPrecision; image-rendering:optimizeQuality; fill-rule:evenodd; clip-rule:evenodd" xmlns:xlink="http://www.w3.org/1999/xlink">
<g><path style="opacity:1" fill="#fefefe" d="M -0.5,-0.5 C 90.8333,-0.5 182.167,-0.5 273.5,-0.5C 273.5,60.8333 273.5,122.167 273.5,183.5C 182.167,183.5 90.8333,183.5 -0.5,183.5C -0.5,122.167 -0.5,60.8333 -0.5,-0.5 Z"/></g>
<g><path style="opacity:1" fill="#f7f7f7" d="M 135.5,22.5 C 138.983,25.2367 142.983,26.9034 147.5,27.5C 153.59,30.1521 160.09,31.4854 167,31.5C 171.693,31.6777 175.526,31.011 178.5,29.5C 180.265,28.5386 182.265,28.2053 184.5,28.5C 187.988,28.4601 191.321,27.7934 194.5,26.5C 194.236,40.898 193.402,55.2313 192,69.5C 194.671,55.2872 196.171,40.9539 196.5,26.5C 197.833,25.5 199.167,24.5 200.5,23.5C 201.833,23.5 203.167,23.5 204.5,23.5C 204.5,30.8333 204.5,38.1667 204.5,45.5C 203.256,50.2981 203.256,54.9648 204.5,59.5C 204.802,62.0593 204.468,64.3926 203.5,66.5C 203.326,58.5272 202.826,58.5272 202,66.5C 201.199,69.367 201.366,72.0336 202.5,74.5C 202.672,75.4916 202.338,76.1583 201.5,76.5C 200.231,79.2655 198.898,82.5988 197.5,86.5C 196.577,92.2679 195.244,97.9345 193.5,103.5C 193.672,104.492 193.338,105.158 192.5,105.5C 190.5,108.833 188.5,112.167 186.5,115.5C 185.833,114.833 185.167,114.167 184.5,113.5C 185.306,112.272 186.306,111.272 187.5,110.5C 189.129,108.804 188.796,107.804 186.5,107.5C 187.808,106.768 189.142,105.934 190.5,105C 188.273,104.879 186.44,104.046 185,102.5C 184.764,104.119 183.931,105.119 182.5,105.5C 182.5,104.833 182.5,104.167 182.5,103.5C 184.08,100.341 185.08,97.0075 185.5,93.5C 187.162,91.7756 188.162,89.6089 188.5,87C 188.43,86.2352 188.097,85.7352 187.5,85.5C 179.259,88.4539 170.925,91.1205 162.5,93.5C 162.167,93.5 161.833,93.5 161.5,93.5C 161.908,92.3569 162.575,91.3569 163.5,90.5C 166.875,89.097 170.209,87.597 173.5,86C 170.161,86.4838 166.827,87.3172 163.5,88.5C 164.122,87.3734 164.955,86.3734 166,85.5C 166.78,83.6131 166.613,81.9464 165.5,80.5C 164.962,78.8828 164.629,77.2161 164.5,75.5C 162.088,75.756 160.421,74.756 159.5,72.5C 160.467,70.2099 161.8,68.2099 163.5,66.5C 157.409,69.7284 157.076,73.5618 162.5,78C 160.323,79.2022 157.989,79.7022 155.5,79.5C 150.463,79.4126 145.463,79.746 140.5,80.5C 129.426,80.8302 118.426,80.1635 107.5,78.5C 107.047,77.5416 106.381,76.7083 105.5,76C 106.823,75.1841 107.489,74.0174 107.5,72.5C 106.518,73.1408 105.518,73.8075 104.5,74.5C 100.839,73.1766 100.506,73.8433 103.5,76.5C 99.6698,77.6886 98.6698,80.022 100.5,83.5C 101.219,85.8881 102.885,87.3881 105.5,88C 110.284,90.0324 115.284,90.8657 120.5,90.5C 132.682,91.7386 145.015,91.7386 157.5,90.5C 159.213,91.6354 159.88,93.302 159.5,95.5C 159.062,95.4346 158.728,95.6012 158.5,96C 160.686,96.6036 160.852,97.7703 159,99.5C 157.493,98.4652 155.993,98.6319 154.5,100C 156.134,100.494 157.801,100.66 159.5,100.5C 159.347,106.845 159.014,113.178 158.5,119.5C 154.548,117.9 150.882,118.234 147.5,120.5C 145.284,121.203 143.451,122.536 142,124.5C 141.578,122.574 140.411,121.574 138.5,121.5C 137.791,122.404 136.791,122.737 135.5,122.5C 135.183,125.572 135.516,128.572 136.5,131.5C 137.417,130.873 138.417,130.539 139.5,130.5C 139.5,131.167 139.5,131.833 139.5,132.5C 133.31,132.177 127.31,132.51 121.5,133.5C 121.762,134.978 121.429,136.311 120.5,137.5C 119.847,133.765 119.014,130.099 118,126.5C 117.505,128.473 117.338,130.473 117.5,132.5C 113.833,132.5 110.167,132.5 106.5,132.5C 108.522,128.695 108.855,124.695 107.5,120.5C 106.029,121.381 105.196,122.714 105,124.5C 104.692,123.692 104.192,123.025 103.5,122.5C 102.378,123.63 101.044,124.297 99.5,124.5C 99.1667,124.5 98.8333,124.5 98.5,124.5C 98.8333,123.833 99.1667,123.167 99.5,122.5C 97.5887,121.925 95.922,120.925 94.5,119.5C 94.2624,117.596 93.2624,116.262 91.5,115.5C 91.6716,114.508 91.3382,113.842 90.5,113.5C 90.573,111.973 89.9063,110.973 88.5,110.5C 88.6716,109.508 88.3382,108.842 87.5,108.5C 86.3411,104.849 84.6744,101.515 82.5,98.5C 80.1357,91.0779 77.8024,83.7446 75.5,76.5C 73.7177,60.2316 73.051,43.8983 73.5,27.5C 84.234,30.6993 95.234,32.0326 106.5,31.5C 116.138,30.2188 124.971,26.8854 133,21.5C 133.671,22.2524 134.504,22.5858 135.5,22.5 Z"/></g>
<g><path style="opacity:1" fill="#383838" d="M 135.5,22.5 C 139.787,23.6483 143.787,25.315 147.5,27.5C 142.983,26.9034 138.983,25.2367 135.5,22.5 Z"/></g>
<g><path style="opacity:1" fill="#383838" d="M 106.5,30.5 C 106.5,30.8333 106.5,31.1667 106.5,31.5C 95.234,32.0326 84.234,30.6993 73.5,27.5C 72.8333,27.1667 72.1667,26.8333 71.5,26.5C 68.9252,25.2126 66.2585,23.8793 63.5,22.5C 62.0615,29.7617 61.3948,37.095 61.5,44.5C 61.1667,44.5 60.8333,44.5 60.5,44.5C 60.3337,37.4921 60.5004,30.4921 61,23.5C 61.2492,22.376 61.7492,21.376 62.5,20.5C 76.2778,27.6859 90.9445,31.0193 106.5,30.5 Z"/></g>
<g><path style="opacity:1" fill="#4d4d4d" d="M 135.5,22.5 C 134.504,22.5858 133.671,22.2524 133,21.5C 124.971,26.8854 116.138,30.2188 106.5,31.5C 106.5,31.1667 106.5,30.8333 106.5,30.5C 115.835,28.7597 124.668,25.4264 133,20.5C 134.301,20.6387 135.134,21.3054 135.5,22.5 Z"/></g>
<g><path style="opacity:1" fill="#535353" d="M 205.5,45.5 C 205.167,45.5 204.833,45.5 204.5,45.5C 204.5,38.1667 204.5,30.8333 204.5,23.5C 203.167,23.5 201.833,23.5 200.5,23.5C 201.848,22.3994 203.348,21.3994 205,20.5C 206.507,28.787 206.674,37.1203 205.5,45.5 Z"/></g>
<g><path style="opacity:1" fill="#414141" d="M 200.5,23.5 C 199.167,24.5 197.833,25.5 196.5,26.5C 195.833,26.5 195.167,26.5 194.5,26.5C 191.321,27.7934 187.988,28.4601 184.5,28.5C 189.652,26.5402 194.985,24.8736 200.5,23.5 Z"/></g>
<g><path style="opacity:1" fill="#787878" d="M 194.5,26.5 C 195.167,26.5 195.833,26.5 196.5,26.5C 196.171,40.9539 194.671,55.2872 192,69.5C 193.402,55.2313 194.236,40.898 194.5,26.5 Z"/></g>
<g><path style="opacity:1" fill="#606060" d="M 147.5,27.5 C 157.732,30.0585 168.065,30.7251 178.5,29.5C 175.526,31.011 171.693,31.6777 167,31.5C 160.09,31.4854 153.59,30.1521 147.5,27.5 Z"/></g>
<g><path style="opacity:1" fill="#212121" d="M 202.5,32.5 C 203.434,33.5676 203.768,34.901 203.5,36.5C 201.473,36.6621 199.473,36.4955 197.5,36C 199.134,35.5065 200.801,35.3398 202.5,35.5C 202.5,34.5 202.5,33.5 202.5,32.5 Z"/></g>
<g><path style="opacity:1" fill="#555555" d="M 81.5,41.5 C 85.9811,40.3516 90.6478,40.1849 95.5,41C 98.0254,41.4238 100.025,42.5905 101.5,44.5C 95.1274,41.878 88.4607,40.878 81.5,41.5 Z"/></g>
<g><path style="opacity:1" fill="#737373" d="M 187.5,42.5 C 184.001,41.9003 180.501,41.2337 177,40.5C 172.736,41.1854 168.569,42.1854 164.5,43.5C 167.913,40.8063 171.913,39.473 176.5,39.5C 180.579,39.4336 184.245,40.4336 187.5,42.5 Z"/></g>
<g><path style="opacity:1" fill="#585858" d="M 200.5,38.5 C 201.552,38.3505 202.552,38.5172 203.5,39C 202.167,40.3333 202.167,41.6667 203.5,43C 201.075,43.2457 199.075,42.4124 197.5,40.5C 198.602,39.8243 199.602,39.1577 200.5,38.5 Z"/></g>
<g><path style="opacity:1" fill="#575757" d="M 81.5,41.5 C 80.4863,42.6737 79.153,43.3404 77.5,43.5C 78.287,41.8958 79.6203,41.2291 81.5,41.5 Z"/></g>
<g><path style="opacity:1" fill="#efefef" d="M 81.5,41.5 C 88.4607,40.878 95.1274,41.878 101.5,44.5C 101.611,45.1174 101.944,45.6174 102.5,46C 101.175,45.8516 100.008,46.0183 99,46.5C 98.6258,47.4162 98.1258,48.2496 97.5,49C 100.113,50.0712 100.113,50.9045 97.5,51.5C 91.1945,48.5456 85.0279,48.879 79,52.5C 76.6739,49.7227 76.1739,46.7227 77.5,43.5C 79.153,43.3404 80.4863,42.6737 81.5,41.5 Z"/></g>
<g><path style="opacity:1" fill="#575757" d="M 88.5,43.5 C 92.1569,43.974 92.3236,45.3074 89,47.5C 88.51,46.2068 88.3433,44.8734 88.5,43.5 Z"/></g>
<g><path style="opacity:1" fill="#767676" d="M 60.5,44.5 C 60.8333,44.5 61.1667,44.5 61.5,44.5C 62.4861,48.97 62.8195,53.6367 62.5,58.5C 61.8333,58.5 61.5,58.8333 61.5,59.5C 60.5128,54.6946 60.1795,49.6946 60.5,44.5 Z"/></g>
<g><path style="opacity:1" fill="#a0a0a0" d="M 81.5,43.5 C 83.1992,43.3398 84.8659,43.5065 86.5,44C 87.5171,45.0495 87.6838,46.2161 87,47.5C 84.7598,47.09 82.5931,47.7566 80.5,49.5C 77.7699,46.9669 78.1032,44.9669 81.5,43.5 Z"/></g>
<g><path style="opacity:1" fill="#838383" d="M 92.5,43.5 C 93.4734,43.9867 94.4734,44.4867 95.5,45C 95.0183,46.0084 94.8516,47.175 95,48.5C 93.1079,47.3826 92.2746,45.7159 92.5,43.5 Z"/></g>
<g><path style="opacity:1" fill="#a7a7a7" d="M 164.5,43.5 C 164.389,44.1174 164.056,44.6174 163.5,45C 165.382,45.1981 167.048,45.6981 168.5,46.5C 167.057,47.3351 166.057,48.6684 165.5,50.5C 164.479,48.812 163.145,47.4787 161.5,46.5C 161.5,44.5 162.5,43.5 164.5,43.5 Z"/></g>
<g><path style="opacity:1" fill="#757575" d="M 71.5,26.5 C 72.1667,26.8333 72.8333,27.1667 73.5,27.5C 73.051,43.8983 73.7177,60.2316 75.5,76.5C 74.144,73.4233 73.3106,70.0899 73,66.5C 71.9453,53.1863 71.4453,39.853 71.5,26.5 Z"/></g>
<g><path style="opacity:1" fill="#949494" d="M 168.5,46.5 C 170.754,44.0478 172.921,44.0478 175,46.5C 175.669,43.9722 176.502,43.9722 177.5,46.5C 177.192,47.3081 176.692,47.9747 176,48.5C 174.093,48.5795 172.093,48.2461 170,47.5C 169.692,48.3081 169.192,48.9747 168.5,49.5C 167.438,48.5754 167.438,47.5754 168.5,46.5 Z"/></g>
<g><path style="opacity:1" fill="#8d8d8d" d="M 184.5,44.5 C 186.078,45.0656 187.412,46.0656 188.5,47.5C 188.192,48.3081 187.692,48.9747 187,49.5C 185.197,49.9055 183.364,49.4055 181.5,48C 182.448,47.5172 183.448,47.3505 184.5,47.5C 184.5,46.5 184.5,45.5 184.5,44.5 Z"/></g>
<g><path style="opacity:1" fill="#606060" d="M 196.5,46.5 C 198.208,46.3773 200.041,46.0439 202,45.5C 202.456,46.7441 201.956,47.5774 200.5,48C 202.271,48.5354 202.604,49.3687 201.5,50.5C 199.885,49.846 198.218,49.346 196.5,49C 198.986,48.2949 198.986,47.4616 196.5,46.5 Z"/></g>
<g><path style="opacity:1" fill="#848484" d="M 101.5,44.5 C 104.323,45.1476 105.823,46.8142 106,49.5C 105.333,48.8333 104.667,48.1667 104,47.5C 103.186,49.2817 102.019,50.7817 100.5,52C 101.056,52.3826 101.389,52.8826 101.5,53.5C 99.847,53.3404 98.5137,52.6737 97.5,51.5C 100.113,50.9045 100.113,50.0712 97.5,49C 98.1258,48.2496 98.6258,47.4162 99,46.5C 100.008,46.0183 101.175,45.8516 102.5,46C 101.944,45.6174 101.611,45.1174 101.5,44.5 Z"/></g>
<g><path style="opacity:1" fill="#535353" d="M 196.5,52.5 C 198.517,51.126 200.517,51.2926 202.5,53C 199.332,53.5823 198.999,54.5823 201.5,56C 199.833,56.6667 198.167,56.6667 196.5,56C 199.125,54.6243 199.125,53.4577 196.5,52.5 Z"/></g>
<g><path style="opacity:1" fill="#696969" d="M 204.5,45.5 C 204.833,45.5 205.167,45.5 205.5,45.5C 205.167,50.1667 204.833,54.8333 204.5,59.5C 203.256,54.9648 203.256,50.2981 204.5,45.5 Z"/></g>
<g><path style="opacity:1" fill="#626262" d="M 161.5,46.5 C 159.977,49.6348 159.31,52.9682 159.5,56.5C 158.371,54.3718 158.204,52.0385 159,49.5C 159.377,48.0577 160.21,47.0577 161.5,46.5 Z"/></g>
<g><path style="opacity:1" fill="#575757" d="M 187.5,42.5 C 190.05,42.8844 191.383,44.3844 191.5,47C 190.877,50.4813 190.377,53.9813 190,57.5C 188.057,58.807 186.223,58.807 184.5,57.5C 182.692,56.0821 182.025,54.0821 182.5,51.5C 177.821,51.3342 173.155,51.5008 168.5,52C 166.408,52.8509 164.408,53.5176 162.5,54C 163.716,52.2602 165.382,51.2602 167.5,51C 173.167,50.3333 178.833,50.3333 184.5,51C 186.081,51.7065 187.581,52.5399 189,53.5C 191.293,49.2932 190.793,45.6266 187.5,42.5 Z"/></g>
<g><path style="opacity:1" fill="#e4e4e4" d="M 184.5,57.5 C 183.15,56.1765 183.317,55.1765 185,54.5C 186.15,55.4239 187.15,55.4239 188,54.5C 188.483,55.448 188.649,56.448 188.5,57.5C 187.167,57.5 185.833,57.5 184.5,57.5 Z"/></g>
<g><path style="opacity:1" fill="#444444" d="M 77.5,43.5 C 76.1739,46.7227 76.6739,49.7227 79,52.5C 85.0279,48.879 91.1945,48.5456 97.5,51.5C 93.5104,50.8099 89.5104,50.6432 85.5,51C 84.9505,52.8446 83.9505,54.3446 82.5,55.5C 81.3801,54.1666 80.0468,53.6666 78.5,54C 79.7158,55.7398 81.3825,56.7398 83.5,57C 82.1667,57.6667 80.8333,57.6667 79.5,57C 77.7179,53.8987 76.3846,50.5654 75.5,47C 75.3866,45.3009 76.0532,44.1342 77.5,43.5 Z"/></g>
<g><path style="opacity:1" fill="#f2f2f2" d="M 81.5,51.5 C 83.337,51.6395 83.6704,52.3061 82.5,53.5C 81.7025,53.0431 81.3691,52.3764 81.5,51.5 Z"/></g>
<g><path style="opacity:1" fill="#121212" d="M 159.5,56.5 C 161.176,57.1834 161.843,58.5168 161.5,60.5C 160.326,59.4863 159.66,58.153 159.5,56.5 Z"/></g>
<g><path style="opacity:1" fill="#858585" d="M 195.5,57.5 C 197.245,58.8063 199.245,59.8063 201.5,60.5C 199.535,61.2922 197.535,61.9588 195.5,62.5C 194.948,60.9974 194.948,59.3307 195.5,57.5 Z"/></g>
<g><path style="opacity:1" fill="#464646" d="M 62.5,58.5 C 63.7792,68.8958 65.4458,79.2291 67.5,89.5C 64.0116,79.9278 62.0116,69.9278 61.5,59.5C 61.5,58.8333 61.8333,58.5 62.5,58.5 Z"/></g>
<g><path style="opacity:1" fill="#6c6c6c" d="M 101.5,53.5 C 104.649,54.1603 106.149,56.1603 106,59.5C 106.654,58.3044 107.154,58.3044 107.5,59.5C 106.143,61.1856 104.81,62.8523 103.5,64.5C 95.1667,63.1667 86.8333,63.1667 78.5,64.5C 85.9012,60.8822 93.5678,60.5489 101.5,63.5C 105.396,60.2584 105.396,56.925 101.5,53.5 Z"/></g>
<g><path style="opacity:1" fill="#808080" d="M 161.5,60.5 C 162.962,61.4577 164.295,62.6244 165.5,64C 170.475,63.6716 175.475,63.6716 180.5,64C 183.666,64.3221 186.333,65.4887 188.5,67.5C 187.417,67.4606 186.417,67.1272 185.5,66.5C 184.646,67.5217 183.646,68.3551 182.5,69C 183.711,69.8928 183.711,70.7261 182.5,71.5C 178.723,70.5411 174.723,70.2077 170.5,70.5C 170.5,69.5 170.5,68.5 170.5,67.5C 174.131,67.0323 177.465,67.699 180.5,69.5C 181.696,69.1543 181.696,68.6543 180.5,68C 181.624,67.7508 182.624,67.2508 183.5,66.5C 176.809,65.2435 170.142,65.2435 163.5,66.5C 163.611,65.8826 163.944,65.3826 164.5,65C 162.859,63.871 161.859,62.371 161.5,60.5 Z"/></g>
<g><path style="opacity:1" fill="#686868" d="M 195.5,63.5 C 197.199,63.3398 198.866,63.5065 200.5,64C 199.663,65.0113 199.33,66.1779 199.5,67.5C 195.918,67.7929 194.584,66.4596 195.5,63.5 Z"/></g>
<g><path style="opacity:1" fill="#909090" d="M 103.5,64.5 C 108.098,65.7204 109.432,68.3871 107.5,72.5C 107.769,70.5714 107.269,68.9047 106,67.5C 102.573,72.9704 99.4061,72.8037 96.5,67C 96.9444,65.2382 97.4444,65.4049 98,67.5C 98.3333,67.1667 98.6667,66.8333 99,66.5C 99.6667,70.5 100.333,70.5 101,66.5C 101.333,67.1667 101.667,67.8333 102,68.5C 102.5,67.3333 103.333,66.5 104.5,66C 103.944,65.6174 103.611,65.1174 103.5,64.5 Z"/></g>
<g><path style="opacity:1" fill="#ededed" d="M 188.5,67.5 C 188.706,70.4951 188.04,73.1617 186.5,75.5C 181.656,73.8645 176.656,72.8645 171.5,72.5C 170.662,72.1583 170.328,71.4916 170.5,70.5C 174.723,70.2077 178.723,70.5411 182.5,71.5C 183.711,70.7261 183.711,69.8928 182.5,69C 183.646,68.3551 184.646,67.5217 185.5,66.5C 186.417,67.1272 187.417,67.4606 188.5,67.5 Z"/></g>
<g><path style="opacity:1" fill="#929292" d="M 78.5,64.5 C 76.9456,65.8946 77.279,66.5613 79.5,66.5C 82.0602,65.3436 84.5602,65.3436 87,66.5C 90.3458,63.7532 91.5125,64.4199 90.5,68.5C 88.6569,67.9572 86.9902,68.6239 85.5,70.5C 84.5,69.1667 83.5,69.1667 82.5,70.5C 81.4593,68.0087 80.6259,68.0087 80,70.5C 79.3333,69.8333 78.6667,69.1667 78,68.5C 77.235,70.0657 77.4017,71.3991 78.5,72.5C 78.5,73.1667 78.1667,73.5 77.5,73.5C 76.6204,71.8632 75.9537,70.0299 75.5,68C 75.7074,66.0503 76.7074,64.8836 78.5,64.5 Z"/></g>
<g><path style="opacity:1" fill="#656565" d="M 203.5,66.5 C 202.908,69.1272 202.575,71.7938 202.5,74.5C 201.366,72.0336 201.199,69.367 202,66.5C 202.826,58.5272 203.326,58.5272 203.5,66.5 Z"/></g>
<g><path style="opacity:1" fill="#888888" d="M 90.5,68.5 C 92.9418,68.8808 93.6085,68.2141 92.5,66.5C 93.365,65.4173 94.365,65.2506 95.5,66C 95.7408,67.5625 95.2408,69.0625 94,70.5C 92.6976,69.9152 91.531,69.2485 90.5,68.5 Z"/></g>
<g><path style="opacity:1" fill="#191919" d="M 129.5,36.5 C 133.769,37.7111 137.936,39.3778 142,41.5C 142.718,40.5494 143.551,40.3828 144.5,41C 146.319,45.1786 148.319,49.6786 150.5,54.5C 149.056,58.116 147.389,61.616 145.5,65C 146.668,66.8709 146.168,68.3709 144,69.5C 143.586,69.0426 143.086,68.7093 142.5,68.5C 139.157,70.1686 135.823,71.8352 132.5,73.5C 128.454,71.1188 124.454,69.4521 120.5,68.5C 119.158,63.6149 117.158,59.1149 114.5,55C 115.885,51.6714 117.552,48.5048 119.5,45.5C 119.291,44.914 118.957,44.414 118.5,44C 121.625,41.8932 124.958,40.0599 128.5,38.5C 129.298,38.0431 129.631,37.3764 129.5,36.5 Z"/></g>
<g><path style="opacity:1" fill="#eaeaea" d="M 127.5,40.5 C 142.097,39.357 148.263,46.0237 146,60.5C 142.167,68.1218 136.001,70.9552 127.5,69C 120.024,64.5852 117.191,58.0852 119,49.5C 121.362,45.9734 124.196,42.9734 127.5,40.5 Z"/></g>
<g><path style="opacity:1" fill="#acacac" d="M 138.5,44.5 C 139.5,44.8333 140.167,45.5 140.5,46.5C 139.167,52.5 139.167,58.5 140.5,64.5C 140.44,65.0431 140.107,65.3764 139.5,65.5C 138.669,59.1928 138.169,52.8594 138,46.5C 137.828,53.346 137.328,60.0126 136.5,66.5C 135.924,58.889 136.59,51.5556 138.5,44.5 Z"/></g>
<g><path style="opacity:1" fill="#181818" d="M 140.5,46.5 C 140.34,48.1992 140.506,49.8659 141,51.5C 141.811,50.0403 142.645,49.707 143.5,50.5C 142.5,51.8333 141.5,53.1667 140.5,54.5C 142.211,56.2403 143.044,58.2403 143,60.5C 142.333,59.8333 141.667,59.1667 141,58.5C 140.505,60.4727 140.338,62.4727 140.5,64.5C 139.167,58.5 139.167,52.5 140.5,46.5 Z"/></g>
<g><path style="opacity:1" fill="#222222" d="M 126.5,44.5 C 127.833,51.5 127.833,58.5 126.5,65.5C 126.121,60.318 124.955,55.318 123,50.5C 122.44,54.9877 122.773,59.3211 124,63.5C 119.435,57.8005 119.435,52.1338 124,46.5C 124.539,49.5285 125.206,52.5285 126,55.5C 126.499,51.8484 126.665,48.1817 126.5,44.5 Z"/></g>
<g><path style="opacity:1" fill="#333333" d="M 129.5,42.5 C 130.873,42.3433 132.207,42.51 133.5,43C 132.518,50.747 132.185,58.5803 132.5,66.5C 131.448,66.6495 130.448,66.4828 129.5,66C 130.789,58.1971 130.789,50.3638 129.5,42.5 Z"/></g>
<g><path style="opacity:1" fill="#8c8c8c" d="M 126.5,44.5 C 126.56,43.9569 126.893,43.6236 127.5,43.5C 128.833,51.1667 128.833,58.8333 127.5,66.5C 126.893,66.3764 126.56,66.0431 126.5,65.5C 127.833,58.5 127.833,51.5 126.5,44.5 Z"/></g>
<g><path style="opacity:1" fill="#040404" d="M 138.5,44.5 C 136.59,51.5556 135.924,58.889 136.5,66.5C 135.818,59.0987 135.152,51.5987 134.5,44C 135.928,43.4209 137.262,43.5876 138.5,44.5 Z"/></g>
<g><path style="opacity:1" fill="#7e7e7e" d="M 170.5,70.5 C 170.328,71.4916 170.662,72.1583 171.5,72.5C 172.167,73.1667 172.833,73.8333 173.5,74.5C 171.143,74.6633 168.81,74.4966 166.5,74C 168.932,72.9125 168.598,72.4125 165.5,72.5C 165.215,70.712 165.548,69.0453 166.5,67.5C 167.283,69.2882 168.616,70.2882 170.5,70.5 Z"/></g>
<g><path style="opacity:1" fill="#232323" d="M 77.5,73.5 C 78.1667,73.5 78.5,73.1667 78.5,72.5C 84.4632,71.4696 90.4632,71.3029 96.5,72C 92.311,73.7647 87.9777,74.9314 83.5,75.5C 81.8333,75.3333 80.1667,75.1667 78.5,75C 77.944,74.6174 77.6107,74.1174 77.5,73.5 Z"/></g>
<g><path style="opacity:1" fill="#141414" d="M 171.5,72.5 C 176.656,72.8645 181.656,73.8645 186.5,75.5C 186.5,76.1667 186.5,76.8333 186.5,77.5C 181.82,77.8812 177.486,76.8812 173.5,74.5C 172.833,73.8333 172.167,73.1667 171.5,72.5 Z"/></g>
<g><path style="opacity:1" fill="#5b5b5b" d="M 194.5,69.5 C 196.179,69.8923 197.846,70.3923 199.5,71C 197.519,71.6054 197.185,72.6054 198.5,74C 196.866,74.4935 195.199,74.6602 193.5,74.5C 193.366,72.7085 193.699,71.0418 194.5,69.5 Z"/></g>
<g><path style="opacity:1" fill="#818181" d="M 107.5,72.5 C 107.489,74.0174 106.823,75.1841 105.5,76C 106.381,76.7083 107.047,77.5416 107.5,78.5C 105.938,78.2671 104.605,77.6005 103.5,76.5C 100.506,73.8433 100.839,73.1766 104.5,74.5C 105.518,73.8075 106.518,73.1408 107.5,72.5 Z"/></g>
<g><path style="opacity:1" fill="#5e5e5e" d="M 188.5,67.5 C 189.314,69.631 189.814,71.9644 190,74.5C 190.649,71.0626 191.149,70.896 191.5,74C 190.921,77.564 190.087,81.064 189,84.5C 189.128,81.5144 189.128,78.5144 189,75.5C 188.292,76.3805 187.458,77.0472 186.5,77.5C 186.5,76.8333 186.5,76.1667 186.5,75.5C 188.04,73.1617 188.706,70.4951 188.5,67.5 Z"/></g>
<g><path style="opacity:1" fill="#5f5f5f" d="M 163.5,66.5 C 161.8,68.2099 160.467,70.2099 159.5,72.5C 160.421,74.756 162.088,75.756 164.5,75.5C 164.629,77.2161 164.962,78.8828 165.5,80.5C 163.244,79.5615 160.91,79.5615 158.5,80.5C 157.209,80.7373 156.209,80.404 155.5,79.5C 157.989,79.7022 160.323,79.2022 162.5,78C 157.076,73.5618 157.409,69.7284 163.5,66.5 Z"/></g>
<g><path style="opacity:1" fill="#595959" d="M 107.5,78.5 C 118.426,80.1635 129.426,80.8302 140.5,80.5C 140.5,80.8333 140.5,81.1667 140.5,81.5C 132.493,81.6664 124.493,81.4997 116.5,81C 113.203,80.7963 110.203,79.963 107.5,78.5 Z"/></g>
<g><path style="opacity:1" fill="#f8f8f8" d="M 165.5,80.5 C 165.908,83.5993 164.741,85.9326 162,87.5C 161.617,86.944 161.117,86.6107 160.5,86.5C 161.301,84.9582 161.634,83.2915 161.5,81.5C 160.209,81.7373 159.209,81.404 158.5,80.5C 160.91,79.5615 163.244,79.5615 165.5,80.5 Z"/></g>
<g><path style="opacity:1" fill="#515151" d="M 193.5,76.5 C 194.935,75.9035 196.602,75.9035 198.5,76.5C 198.5,77.8333 198.5,79.1667 198.5,80.5C 191.374,80.6369 191.041,79.9702 197.5,78.5C 196.234,77.6376 194.901,76.9709 193.5,76.5 Z"/></g>
<g><path style="opacity:1" fill="#656565" d="M 103.5,76.5 C 101.15,78.2133 100.15,80.5466 100.5,83.5C 98.6698,80.022 99.6698,77.6886 103.5,76.5 Z"/></g>
<g><path style="opacity:1" fill="#f3f3f3" d="M 103.5,76.5 C 104.605,77.6005 105.938,78.2671 107.5,78.5C 110.203,79.963 113.203,80.7963 116.5,81C 124.493,81.4997 132.493,81.6664 140.5,81.5C 146.176,81.3339 151.843,81.5006 157.5,82C 153.94,83.2367 150.273,83.7367 146.5,83.5C 145.176,86.7947 146.509,88.128 150.5,87.5C 150.281,86.325 150.614,85.325 151.5,84.5C 151.296,85.5294 151.796,86.5294 153,87.5C 153.308,86.6919 153.808,86.0253 154.5,85.5C 156.003,86.0522 157.669,86.0522 159.5,85.5C 159.5,86.5 159.5,87.5 159.5,88.5C 146.58,90.2678 133.58,90.9344 120.5,90.5C 119.081,89.5489 117.415,89.2155 115.5,89.5C 115.513,86.6387 116.679,85.6387 119,86.5C 119.974,84.1224 120.641,84.4557 121,87.5C 121.5,86.5 122,85.5 122.5,84.5C 120.242,83.5815 117.909,82.9148 115.5,82.5C 114.353,82.8178 113.519,83.4844 113,84.5C 110.332,80.0964 107.165,79.5964 103.5,83C 104.715,85.0955 105.549,84.9288 106,82.5C 106.333,83.1667 106.667,83.8333 107,84.5C 108.117,84.3349 109.284,84.0016 110.5,83.5C 111.584,84.6651 112.417,85.9984 113,87.5C 113.654,86.3044 114.154,86.3044 114.5,87.5C 109.289,88.3616 104.623,87.0283 100.5,83.5C 100.15,80.5466 101.15,78.2133 103.5,76.5 Z"/></g>
<g><path style="opacity:1" fill="#5c5c5c" d="M 75.5,76.5 C 77.8024,83.7446 80.1357,91.0779 82.5,98.5C 78.5921,91.7724 76.2588,84.4391 75.5,76.5 Z"/></g>
<g><path style="opacity:1" fill="#949494" d="M 155.5,79.5 C 156.209,80.404 157.209,80.7373 158.5,80.5C 159.209,81.404 160.209,81.7373 161.5,81.5C 161.634,83.2915 161.301,84.9582 160.5,86.5C 160.672,87.4916 160.338,88.1583 159.5,88.5C 159.5,87.5 159.5,86.5 159.5,85.5C 157.669,86.0522 156.003,86.0522 154.5,85.5C 153.808,86.0253 153.308,86.6919 153,87.5C 151.796,86.5294 151.296,85.5294 151.5,84.5C 150.614,85.325 150.281,86.325 150.5,87.5C 146.509,88.128 145.176,86.7947 146.5,83.5C 150.273,83.7367 153.94,83.2367 157.5,82C 151.843,81.5006 146.176,81.3339 140.5,81.5C 140.5,81.1667 140.5,80.8333 140.5,80.5C 145.463,79.746 150.463,79.4126 155.5,79.5 Z"/></g>
<g><path style="opacity:1" fill="#7c7c7c" d="M 197.5,86.5 C 194.203,87.8547 193.87,87.3547 196.5,85C 194.953,84.6666 193.62,85.1666 192.5,86.5C 189.833,85.1667 189.833,83.8333 192.5,82.5C 193.5,83.8333 194.5,83.8333 195.5,82.5C 197.111,83.3202 197.778,84.6536 197.5,86.5 Z"/></g>
<g><path style="opacity:1" fill="#8e8e8e" d="M 120.5,90.5 C 115.284,90.8657 110.284,90.0324 105.5,88C 102.885,87.3881 101.219,85.8881 100.5,83.5C 104.623,87.0283 109.289,88.3616 114.5,87.5C 114.154,86.3044 113.654,86.3044 113,87.5C 112.417,85.9984 111.584,84.6651 110.5,83.5C 109.284,84.0016 108.117,84.3349 107,84.5C 106.667,83.8333 106.333,83.1667 106,82.5C 105.549,84.9288 104.715,85.0955 103.5,83C 107.165,79.5964 110.332,80.0964 113,84.5C 113.519,83.4844 114.353,82.8178 115.5,82.5C 117.909,82.9148 120.242,83.5815 122.5,84.5C 122,85.5 121.5,86.5 121,87.5C 120.641,84.4557 119.974,84.1224 119,86.5C 116.679,85.6387 115.513,86.6387 115.5,89.5C 117.415,89.2155 119.081,89.5489 120.5,90.5 Z"/></g>
<g><path style="opacity:1" fill="#828282" d="M 146.5,83.5 C 144.955,84.2297 144.122,85.563 144,87.5C 143.333,84.8333 142.667,84.8333 142,87.5C 141.333,84.8333 140.667,84.8333 140,87.5C 139.374,85.0087 138.541,85.0087 137.5,87.5C 136.459,85.0087 135.626,85.0087 135,87.5C 132.045,87.3218 128.879,87.3218 125.5,87.5C 125.5,86.5 125.5,85.5 125.5,84.5C 131.176,84.6661 136.843,84.4994 142.5,84C 143.818,82.3702 145.151,82.2035 146.5,83.5 Z"/></g>
<g><path style="opacity:1" fill="#bcbcbc" d="M 161.5,93.5 C 161.167,94.5 160.5,95.1667 159.5,95.5C 159.88,93.302 159.213,91.6354 157.5,90.5C 159.302,89.5418 161.302,88.8751 163.5,88.5C 166.827,87.3172 170.161,86.4838 173.5,86C 170.209,87.597 166.875,89.097 163.5,90.5C 162.575,91.3569 161.908,92.3569 161.5,93.5 Z"/></g>
<g><path style="opacity:1" fill="#c1c1c1" d="M 187.5,85.5 C 187.586,86.4959 187.252,87.3292 186.5,88C 178.711,90.979 170.877,93.8123 163,96.5C 162.5,96.3333 162,96.1667 161.5,96C 162.252,95.3292 162.586,94.4959 162.5,93.5C 170.925,91.1205 179.259,88.4539 187.5,85.5 Z"/></g>
<g><path style="opacity:1" fill="#8a8a8a" d="M 98.5,89.5 C 101.898,89.1796 105.232,89.513 108.5,90.5C 108.167,91.5 107.5,92.1667 106.5,92.5C 105.304,92.1543 105.304,91.6543 106.5,91C 102.406,90.5199 98.4064,91.0199 94.5,92.5C 92.5269,91.6689 90.5269,91.5022 88.5,92C 91.1667,93.6667 93.8333,95.3333 96.5,97C 97.6956,97.6543 97.6956,98.1543 96.5,98.5C 92.9674,97.0419 89.3007,96.0419 85.5,95.5C 85.1667,95.1667 84.8333,94.8333 84.5,94.5C 85.325,93.6143 86.325,93.281 87.5,93.5C 87.5,92.5 87.5,91.5 87.5,90.5C 91.3714,90.815 95.0381,90.4816 98.5,89.5 Z"/></g>
<g><path style="opacity:1" fill="#6c6c6c" d="M 165.5,80.5 C 166.613,81.9464 166.78,83.6131 166,85.5C 164.955,86.3734 164.122,87.3734 163.5,88.5C 161.302,88.8751 159.302,89.5418 157.5,90.5C 145.015,91.7386 132.682,91.7386 120.5,90.5C 133.58,90.9344 146.58,90.2678 159.5,88.5C 160.338,88.1583 160.672,87.4916 160.5,86.5C 161.117,86.6107 161.617,86.944 162,87.5C 164.741,85.9326 165.908,83.5993 165.5,80.5 Z"/></g>
<g><path style="opacity:1" fill="#525252" d="M 201.5,76.5 C 200.518,86.1126 197.852,95.1126 193.5,103.5C 195.244,97.9345 196.577,92.2679 197.5,86.5C 198.898,82.5988 200.231,79.2655 201.5,76.5 Z"/></g>
<g><path style="opacity:1" fill="#525252" d="M 67.5,89.5 C 69.411,93.233 70.7444,97.233 71.5,101.5C 69.0648,97.9417 67.7315,93.9417 67.5,89.5 Z"/></g>
<g><path style="opacity:1" fill="#f4f4f4" d="M 185.5,93.5 C 183.648,96.5507 182.314,99.884 181.5,103.5C 179.326,106.515 177.659,109.849 176.5,113.5C 174.674,115.147 173.34,117.147 172.5,119.5C 170.871,120.625 169.371,121.959 168,123.5C 167.601,123.272 167.435,122.938 167.5,122.5C 167.02,116.286 166.02,110.286 164.5,104.5C 164.809,101.654 166.475,100.154 169.5,100C 166.5,99.6667 163.5,99.3333 160.5,99C 168.705,96.3161 176.872,93.4827 185,90.5C 185.483,91.448 185.649,92.448 185.5,93.5 Z"/></g>
<g><path style="opacity:1" fill="#494949" d="M 185.5,93.5 C 185.08,97.0075 184.08,100.341 182.5,103.5C 182.167,103.5 181.833,103.5 181.5,103.5C 182.314,99.884 183.648,96.5507 185.5,93.5 Z"/></g>
<g><path style="opacity:1" fill="#afafaf" d="M 114.5,101.5 C 112.858,101.594 111.025,101.26 109,100.5C 108.583,101.756 107.75,102.423 106.5,102.5C 104.076,101.97 101.743,101.136 99.5,100C 100.5,99.6667 101.5,99.3333 102.5,99C 101.644,96.5901 100.31,95.4234 98.5,95.5C 99.8689,93.876 101.536,93.376 103.5,94C 102.367,94.2399 101.867,94.7399 102,95.5C 105.548,99.1302 109.715,100.297 114.5,99C 115.774,99.9772 115.774,100.811 114.5,101.5 Z"/></g>
<g><path style="opacity:1" fill="#585858" d="M 185.5,99.5 C 187.288,98.3775 189.288,98.2109 191.5,99C 190.929,100.205 190.262,101.372 189.5,102.5C 188.148,101.476 186.815,100.476 185.5,99.5 Z"/></g>
<g><path style="opacity:1" fill="#4e4e4e" d="M 82.5,98.5 C 84.6744,101.515 86.3411,104.849 87.5,108.5C 84.7933,105.753 83.1266,102.42 82.5,98.5 Z"/></g>
<g><path style="opacity:1" fill="#252525" d="M 114.5,101.5 C 113.048,103.1 111.215,104.1 109,104.5C 107.624,104.316 106.791,103.649 106.5,102.5C 107.75,102.423 108.583,101.756 109,100.5C 111.025,101.26 112.858,101.594 114.5,101.5 Z"/></g>
<g><path style="opacity:1" fill="#707070" d="M 186.5,107.5 C 184.62,107.771 183.287,107.104 182.5,105.5C 183.931,105.119 184.764,104.119 185,102.5C 186.44,104.046 188.273,104.879 190.5,105C 189.142,105.934 187.808,106.768 186.5,107.5 Z"/></g>
<g><path style="opacity:1" fill="#444444" d="M 71.5,101.5 C 73.2927,103.426 74.2927,105.759 74.5,108.5C 72.7073,106.574 71.7073,104.241 71.5,101.5 Z"/></g>
<g><path style="opacity:1" fill="#8a8a8a" d="M 124.5,110.5 C 121.782,111.104 119.449,112.437 117.5,114.5C 116.903,114.265 116.57,113.765 116.5,113C 117.581,111.629 118.415,110.129 119,108.5C 119.333,109.167 119.667,109.833 120,110.5C 123.159,105.776 127.325,102.443 132.5,100.5C 134.593,101.697 135.76,103.031 136,104.5C 136.95,103.978 137.784,103.311 138.5,102.5C 140.444,103.189 142.444,103.689 144.5,104C 141.123,104.452 137.789,105.118 134.5,106C 130.222,106.964 126.888,108.464 124.5,110.5 Z"/></g>
<g><path style="opacity:1" fill="#757575" d="M 187.5,85.5 C 188.097,85.7352 188.43,86.2352 188.5,87C 188.162,89.6089 187.162,91.7756 185.5,93.5C 185.649,92.448 185.483,91.448 185,90.5C 176.872,93.4827 168.705,96.3161 160.5,99C 163.5,99.3333 166.5,99.6667 169.5,100C 166.475,100.154 164.809,101.654 164.5,104.5C 163.685,103.571 162.852,102.571 162,101.5C 161.5,102 161,102.5 160.5,103C 161.595,105.195 162.595,107.362 163.5,109.5C 159.043,113.608 158.377,117.942 161.5,122.5C 157.097,120.701 152.43,120.034 147.5,120.5C 150.882,118.234 154.548,117.9 158.5,119.5C 159.014,113.178 159.347,106.845 159.5,100.5C 157.801,100.66 156.134,100.494 154.5,100C 155.993,98.6319 157.493,98.4652 159,99.5C 160.852,97.7703 160.686,96.6036 158.5,96C 158.728,95.6012 159.062,95.4346 159.5,95.5C 160.5,95.1667 161.167,94.5 161.5,93.5C 161.833,93.5 162.167,93.5 162.5,93.5C 162.586,94.4959 162.252,95.3292 161.5,96C 162,96.1667 162.5,96.3333 163,96.5C 170.877,93.8123 178.711,90.979 186.5,88C 187.252,87.3292 187.586,86.4959 187.5,85.5 Z"/></g>
<g><path style="opacity:1" fill="#bbbbbb" d="M 181.5,103.5 C 181.833,103.5 182.167,103.5 182.5,103.5C 182.5,104.167 182.5,104.833 182.5,105.5C 183.287,107.104 184.62,107.771 186.5,107.5C 188.796,107.804 189.129,108.804 187.5,110.5C 185.5,110.167 183.5,109.833 181.5,109.5C 181.088,111.973 182.088,113.306 184.5,113.5C 185.167,114.167 185.833,114.833 186.5,115.5C 186.5,116.167 186.5,116.833 186.5,117.5C 186.672,118.492 186.338,119.158 185.5,119.5C 185.167,119.5 184.833,119.5 184.5,119.5C 182.841,116.979 180.675,116.312 178,117.5C 178.195,115.874 178.195,114.207 178,112.5C 177.617,113.056 177.117,113.389 176.5,113.5C 177.659,109.849 179.326,106.515 181.5,103.5 Z"/></g>
<g><path style="opacity:1" fill="#1d1d1d" d="M 117.5,114.5 C 119.449,112.437 121.782,111.104 124.5,110.5C 130.501,109.167 136.501,107.833 142.5,106.5C 142.739,108.467 142.406,110.301 141.5,112C 133.471,112.809 125.471,113.643 117.5,114.5 Z"/></g>
<g><path style="opacity:1" fill="#4e4e4e" d="M 192.5,105.5 C 191.54,110.086 189.54,114.086 186.5,117.5C 186.5,116.833 186.5,116.167 186.5,115.5C 188.5,112.167 190.5,108.833 192.5,105.5 Z"/></g>
<g><path style="opacity:1" fill="#3b3b3b" d="M 88.5,110.5 C 89.9063,110.973 90.573,111.973 90.5,113.5C 89.0937,113.027 88.427,112.027 88.5,110.5 Z"/></g>
<g><path style="opacity:1" fill="#606060" d="M 187.5,110.5 C 186.306,111.272 185.306,112.272 184.5,113.5C 182.088,113.306 181.088,111.973 181.5,109.5C 183.5,109.833 185.5,110.167 187.5,110.5 Z"/></g>
<g><path style="opacity:1" fill="#a6a6a6" d="M 164.5,104.5 C 166.02,110.286 167.02,116.286 167.5,122.5C 166.566,123.568 166.232,124.901 166.5,126.5C 165.833,126.5 165.167,126.5 164.5,126.5C 164.262,124.596 163.262,123.262 161.5,122.5C 158.377,117.942 159.043,113.608 163.5,109.5C 162.595,107.362 161.595,105.195 160.5,103C 161,102.5 161.5,102 162,101.5C 162.852,102.571 163.685,103.571 164.5,104.5 Z"/></g>
<g><path style="opacity:1" fill="#4a4a4a" d="M 77.5,114.5 C 78.9063,114.973 79.573,115.973 79.5,117.5C 78.0937,117.027 77.427,116.027 77.5,114.5 Z"/></g>
<g><path style="opacity:1" fill="#464646" d="M 79.5,117.5 C 80.9063,117.973 81.573,118.973 81.5,120.5C 80.0937,120.027 79.427,119.027 79.5,117.5 Z"/></g>
<g><path style="opacity:1" fill="#393939" d="M 184.5,119.5 C 184.833,119.5 185.167,119.5 185.5,119.5C 185.573,121.027 184.906,122.027 183.5,122.5C 183.557,121.391 183.89,120.391 184.5,119.5 Z"/></g>
<g><path style="opacity:1" fill="#333333" d="M 81.5,120.5 C 83.2624,121.262 84.2624,122.596 84.5,124.5C 82.7376,123.738 81.7376,122.404 81.5,120.5 Z"/></g>
<g><path style="opacity:1" fill="#202020" d="M 183.5,122.5 C 183.262,124.404 182.262,125.738 180.5,126.5C 180.5,125.833 180.5,125.167 180.5,124.5C 181.5,123.833 182.5,123.167 183.5,122.5 Z"/></g>
<g><path style="opacity:1" fill="#373737" d="M 84.5,124.5 C 87.9031,126.9 90.5698,129.9 92.5,133.5C 89.1485,131.146 86.4819,128.146 84.5,124.5 Z"/></g>
<g><path style="opacity:1" fill="#ebebeb" d="M 71.5,26.5 C 71.4453,39.853 71.9453,53.1863 73,66.5C 73.3106,70.0899 74.144,73.4233 75.5,76.5C 76.2588,84.4391 78.5921,91.7724 82.5,98.5C 83.1266,102.42 84.7933,105.753 87.5,108.5C 88.3382,108.842 88.6716,109.508 88.5,110.5C 88.427,112.027 89.0937,113.027 90.5,113.5C 91.3382,113.842 91.6716,114.508 91.5,115.5C 91.7376,117.404 92.7376,118.738 94.5,119.5C 95.0798,121.749 96.4131,123.415 98.5,124.5C 98.894,126.71 100.227,128.043 102.5,128.5C 102.833,129.5 103.5,130.167 104.5,130.5C 104.5,131.833 105.167,132.5 106.5,132.5C 107.167,133.833 108.167,134.833 109.5,135.5C 110.585,137.587 112.251,138.92 114.5,139.5C 115.262,141.262 116.596,142.262 118.5,142.5C 119.262,144.262 120.596,145.262 122.5,145.5C 122.973,146.906 123.973,147.573 125.5,147.5C 126.914,149.054 128.581,150.388 130.5,151.5C 130.137,152.183 129.804,152.85 129.5,153.5C 127.659,157.469 128.825,158.803 133,157.5C 133.765,155.934 133.598,154.601 132.5,153.5C 132.433,152.041 132.766,150.708 133.5,149.5C 137.42,148.873 140.753,147.207 143.5,144.5C 147.683,142.913 151.35,140.579 154.5,137.5C 156.027,137.573 157.027,136.906 157.5,135.5C 158.5,135.167 159.167,134.5 159.5,133.5C 160.833,133.5 161.5,132.833 161.5,131.5C 164.167,130.833 165.833,129.167 166.5,126.5C 169.243,124.761 171.243,122.427 172.5,119.5C 174.822,118.198 176.155,116.198 176.5,113.5C 177.117,113.389 177.617,113.056 178,112.5C 178.195,114.207 178.195,115.874 178,117.5C 180.675,116.312 182.841,116.979 184.5,119.5C 183.89,120.391 183.557,121.391 183.5,122.5C 182.5,123.167 181.5,123.833 180.5,124.5C 180.5,125.167 180.5,125.833 180.5,126.5C 179.206,127.29 178.039,128.29 177,129.5C 175.887,128.695 174.721,128.028 173.5,127.5C 174.682,129.003 175.182,130.67 175,132.5C 170.605,137.064 166.105,141.398 161.5,145.5C 158.883,146.786 156.55,148.453 154.5,150.5C 152.326,150.75 150.659,151.75 149.5,153.5C 146.404,154.547 143.404,155.88 140.5,157.5C 139.304,157.154 139.304,156.654 140.5,156C 138.208,157.101 136.708,156.268 136,153.5C 135.135,155.888 135.968,157.388 138.5,158C 136.134,159.233 133.634,160.066 131,160.5C 128.104,159.633 125.271,158.633 122.5,157.5C 119.681,154.925 116.681,152.592 113.5,150.5C 113.953,149.542 114.619,148.708 115.5,148C 114.376,147.751 113.376,147.251 112.5,146.5C 112.667,146.167 112.833,145.833 113,145.5C 114.425,144.788 115.925,144.621 117.5,145C 114.108,141.647 111.941,142.48 111,147.5C 110.487,145.479 109.32,143.979 107.5,143C 108.833,143 110.167,143 111.5,143C 109.606,141.921 109.273,140.587 110.5,139C 109,137.833 107.5,136.667 106,135.5C 104.579,137.405 103.412,139.405 102.5,141.5C 101.609,140.89 100.609,140.557 99.5,140.5C 97.5,137.833 95.1667,135.5 92.5,133.5C 90.5698,129.9 87.9031,126.9 84.5,124.5C 84.2624,122.596 83.2624,121.262 81.5,120.5C 81.573,118.973 80.9063,117.973 79.5,117.5C 79.573,115.973 78.9063,114.973 77.5,114.5C 75.6206,113.105 74.6206,111.105 74.5,108.5C 74.2927,105.759 73.2927,103.426 71.5,101.5C 70.7444,97.233 69.411,93.233 67.5,89.5C 65.4458,79.2291 63.7792,68.8958 62.5,58.5C 62.8195,53.6367 62.4861,48.97 61.5,44.5C 61.3948,37.095 62.0615,29.7617 63.5,22.5C 66.2585,23.8793 68.9252,25.2126 71.5,26.5 Z"/></g>
<g><path style="opacity:1" fill="#727272" d="M 97.5,128.5 C 99.1958,128.685 100.529,129.519 101.5,131C 99.3527,132.185 97.0194,132.519 94.5,132C 95.7101,130.961 96.7101,129.794 97.5,128.5 Z"/></g>
<g><path style="opacity:1" fill="#3c3c3c" d="M 164.5,126.5 C 165.167,126.5 165.833,126.5 166.5,126.5C 165.833,129.167 164.167,130.833 161.5,131.5C 161.5,131.167 161.5,130.833 161.5,130.5C 161.413,127.402 161.913,127.068 163,129.5C 164.039,128.756 164.539,127.756 164.5,126.5 Z"/></g>
<g><path style="opacity:1" fill="#000000" d="M 102.5,128.5 C 103.833,128.5 104.5,129.167 104.5,130.5C 103.5,130.167 102.833,129.5 102.5,128.5 Z"/></g>
<g><path style="opacity:1" fill="#515151" d="M 91.5,128.5 C 90.3213,125.192 91.6546,123.692 95.5,124C 97.319,128.677 95.9857,130.177 91.5,128.5 Z"/></g>
<g><path style="opacity:1" fill="#a7a7a7" d="M 124.5,123.5 C 126.344,125.279 127.01,127.612 126.5,130.5C 124.5,130.5 122.5,130.5 120.5,130.5C 120.961,127.697 122.295,125.363 124.5,123.5 Z"/></g>
<g><path style="opacity:1" fill="#9d9d9d" d="M 161.5,130.5 C 161.5,130.833 161.5,131.167 161.5,131.5C 161.5,132.833 160.833,133.5 159.5,133.5C 157.554,130.363 157.221,127.03 158.5,123.5C 160.018,125.621 161.018,127.954 161.5,130.5 Z"/></g>
<g><path style="opacity:1" fill="#535353" d="M 173.5,127.5 C 172.711,127.217 172.044,126.717 171.5,126C 173.101,125.727 174.601,125.227 176,124.5C 176.5,125 177,125.5 177.5,126C 175.942,126.21 174.609,126.71 173.5,127.5 Z"/></g>
<g><path style="opacity:1" fill="#a6a6a6" d="M 106.5,132.5 C 105.167,132.5 104.5,131.833 104.5,130.5C 104.5,129.167 103.833,128.5 102.5,128.5C 102.229,126.57 101.229,125.236 99.5,124.5C 101.044,124.297 102.378,123.63 103.5,122.5C 104.192,123.025 104.692,123.692 105,124.5C 105.196,122.714 106.029,121.381 107.5,120.5C 108.855,124.695 108.522,128.695 106.5,132.5 Z"/></g>
<g><path style="opacity:1" fill="#4a4a4a" d="M 98.5,124.5 C 98.8333,124.5 99.1667,124.5 99.5,124.5C 101.229,125.236 102.229,126.57 102.5,128.5C 100.227,128.043 98.894,126.71 98.5,124.5 Z"/></g>
<g><path style="opacity:1" fill="#f4f4f4" d="M 91.5,128.5 C 91.8338,125.725 93.1671,125.059 95.5,126.5C 94.6798,128.111 93.3464,128.778 91.5,128.5 Z"/></g>
<g><path style="opacity:1" fill="#8b8b8b" d="M 131.5,121.5 C 132.496,121.414 133.329,121.748 134,122.5C 134.497,125.146 134.664,127.813 134.5,130.5C 133.448,130.649 132.448,130.483 131.5,130C 132.624,129.161 133.291,127.994 133.5,126.5C 133.014,124.696 132.347,123.029 131.5,121.5 Z"/></g>
<g><path style="opacity:1" fill="#666666" d="M 161.5,122.5 C 163.262,123.262 164.262,124.596 164.5,126.5C 162.738,125.738 161.738,124.404 161.5,122.5 Z"/></g>
<g><path style="opacity:1" fill="#9b9b9b" d="M 127.5,121.5 C 128.5,121.5 129.5,121.5 130.5,121.5C 130.5,124.5 130.5,127.5 130.5,130.5C 129.5,130.5 128.5,130.5 127.5,130.5C 127.5,127.5 127.5,124.5 127.5,121.5 Z"/></g>
<g><path style="opacity:1" fill="#636363" d="M 123.5,121.5 C 122.458,123.791 120.958,124.791 119,124.5C 118.386,122.687 118.719,122.353 120,123.5C 120.816,122.177 121.983,121.511 123.5,121.5 Z"/></g>
<g><path style="opacity:1" fill="#a9a9a9" d="M 110.5,120.5 C 115.93,121.653 117.93,124.986 116.5,130.5C 114.473,130.662 112.473,130.495 110.5,130C 111.7,126.869 111.7,123.702 110.5,120.5 Z"/></g>
<g><path style="opacity:1" fill="#373737" d="M 94.5,119.5 C 95.922,120.925 97.5887,121.925 99.5,122.5C 99.1667,123.167 98.8333,123.833 98.5,124.5C 96.4131,123.415 95.0798,121.749 94.5,119.5 Z"/></g>
<g><path style="opacity:1" fill="#444444" d="M 172.5,119.5 C 171.243,122.427 169.243,124.761 166.5,126.5C 166.232,124.901 166.566,123.568 167.5,122.5C 167.435,122.938 167.601,123.272 168,123.5C 169.371,121.959 170.871,120.625 172.5,119.5 Z"/></g>
<g><path style="opacity:1" fill="#878787" d="M 88.5,116.5 C 90.1207,116.787 91.1207,117.787 91.5,119.5C 90.2815,119.109 89.4482,119.776 89,121.5C 88.3333,120.833 87.6667,120.167 87,119.5C 87.8352,124.607 87.0018,124.773 84.5,120C 85.7305,118.595 87.0639,117.429 88.5,116.5 Z"/></g>
<g><path style="opacity:1" fill="#dadada" d="M 147.5,120.5 C 152.43,120.034 157.097,120.701 161.5,122.5C 161.738,124.404 162.738,125.738 164.5,126.5C 164.539,127.756 164.039,128.756 163,129.5C 161.913,127.068 161.413,127.402 161.5,130.5C 161.018,127.954 160.018,125.621 158.5,123.5C 157.221,127.03 157.554,130.363 159.5,133.5C 154.167,133.5 148.833,133.5 143.5,133.5C 142.123,134.556 141.29,135.889 141,137.5C 140.667,134.167 140.333,130.833 140,127.5C 139.517,128.448 139.351,129.448 139.5,130.5C 138.417,130.539 137.417,130.873 136.5,131.5C 135.516,128.572 135.183,125.572 135.5,122.5C 136.791,122.737 137.791,122.404 138.5,121.5C 140.411,121.574 141.578,122.574 142,124.5C 143.451,122.536 145.284,121.203 147.5,120.5 Z"/></g>
<g><path style="opacity:1" fill="#373737" d="M 149.5,123.5 C 150.209,122.596 151.209,122.263 152.5,122.5C 152.664,125.187 152.497,127.854 152,130.5C 152.03,127.639 151.197,125.305 149.5,123.5 Z"/></g>
<g><path style="opacity:1" fill="#707070" d="M 153.5,122.5 C 154.5,122.5 155.5,122.5 156.5,122.5C 156.664,125.187 156.497,127.854 156,130.5C 155.333,121.167 154.667,121.167 154,130.5C 153.503,127.854 153.336,125.187 153.5,122.5 Z"/></g>
<g><path style="opacity:1" fill="#535353" d="M 146.5,123.5 C 147.725,124.152 148.392,125.319 148.5,127C 148.333,128.167 148.167,129.333 148,130.5C 147.56,128.134 147.06,125.801 146.5,123.5 Z"/></g>
<g><path style="opacity:1" fill="#717171" d="M 138.5,121.5 C 133.5,118.833 128.5,118.833 123.5,121.5C 125.332,119.106 127.832,118.106 131,118.5C 134.168,118.106 136.668,119.106 138.5,121.5 Z"/></g>
<g><path style="opacity:1" fill="#656565" d="M 180.5,124.5 C 178.57,123.237 176.903,121.57 175.5,119.5C 177.466,118.628 179.466,118.795 181.5,120C 179.452,121.226 179.119,122.726 180.5,124.5 Z"/></g>
<g><path style="opacity:1" fill="#909090" d="M 99.5,122.5 C 103.452,117.371 108.452,116.204 114.5,119C 110.833,119.333 107.167,119.667 103.5,120C 102.529,121.481 101.196,122.315 99.5,122.5 Z"/></g>
<g><path style="opacity:1" fill="#515151" d="M 176.5,113.5 C 176.155,116.198 174.822,118.198 172.5,119.5C 173.34,117.147 174.674,115.147 176.5,113.5 Z"/></g>
<g><path style="opacity:1" fill="#565656" d="M 91.5,115.5 C 93.2624,116.262 94.2624,117.596 94.5,119.5C 92.7376,118.738 91.7376,117.404 91.5,115.5 Z"/></g>
<g><path style="opacity:1" fill="#515151" d="M 85.5,114.5 C 84.9976,116.085 83.9976,116.585 82.5,116C 83.2438,114.961 84.2438,114.461 85.5,114.5 Z"/></g>
<g><path style="opacity:1" fill="#515151" d="M 85.5,114.5 C 85.3287,111.203 85.9954,110.869 87.5,113.5C 87.0431,114.298 86.3764,114.631 85.5,114.5 Z"/></g>
<g><path style="opacity:1" fill="#5b5b5b" d="M 79.5,111.5 C 81.4944,110.65 83.4944,110.15 85.5,110C 83.6661,112.129 81.6661,112.629 79.5,111.5 Z"/></g>
<g><path style="opacity:1" fill="#515151" d="M 79.5,111.5 C 78.3213,108.192 79.6546,106.692 83.5,107C 81.3645,107.876 80.0312,109.376 79.5,111.5 Z"/></g>
<g><path style="opacity:1" fill="#969696" d="M 79.5,98.5 C 81.2274,100.516 82.0608,102.849 82,105.5C 80.9326,104.809 79.7659,104.309 78.5,104C 79.9928,102.844 79.8261,102.01 78,101.5C 76.8382,102.187 75.6716,102.353 74.5,102C 76.2331,100.811 77.8998,99.6444 79.5,98.5 Z"/></g>
<g><path style="opacity:1" fill="#7a7a7a" d="M 79.5,98.5 C 77.3374,97.6377 75.3374,97.3043 73.5,97.5C 75.7092,96.937 77.2092,95.6036 78,93.5C 78.6077,95.1545 79.1077,96.8211 79.5,98.5 Z"/></g>
<g><path style="opacity:1" fill="#7d7d7d" d="M 74.5,88.5 C 76.8324,89.1617 77.4991,90.495 76.5,92.5C 75.8076,91.9747 75.3076,91.3081 75,90.5C 74.51,91.7932 74.3433,93.1266 74.5,94.5C 73.325,94.719 72.325,94.3857 71.5,93.5C 72.9937,92.0953 73.9937,90.4287 74.5,88.5 Z"/></g>
<g><path style="opacity:1" fill="#727272" d="M 71.5,82.5 C 75.1351,82.6556 75.4685,83.8223 72.5,86C 73.5,86.3333 74.5,86.6667 75.5,87C 73.5527,87.9913 71.5527,88.3247 69.5,88C 71.5127,86.2087 71.5127,84.8753 69.5,84C 70.4158,83.7216 71.0825,83.2216 71.5,82.5 Z"/></g>
<g><path style="opacity:1" fill="#6c6c6c" d="M 72.5,79.5 C 73.8847,80.3023 73.718,80.9689 72,81.5C 70.6996,82.452 69.533,82.452 68.5,81.5C 69.9492,80.8281 71.2825,80.1614 72.5,79.5 Z"/></g>
<g><path style="opacity:1" fill="#636363" d="M 68.5,72.5 C 69.8734,72.3433 71.2068,72.51 72.5,73C 70.0694,73.2949 68.236,74.4616 67,76.5C 66.516,74.8067 67.016,73.4733 68.5,72.5 Z"/></g>
<g><path style="opacity:1" fill="#585858" d="M 66.5,67.5 C 72.6951,67.0104 73.0284,68.3438 67.5,71.5C 66.5713,70.3112 66.238,68.9778 66.5,67.5 Z"/></g>
<g><path style="opacity:1" fill="#393939" d="M 67.5,62.5 C 68.2625,63.2679 69.2625,63.7679 70.5,64C 68.8333,64.6667 67.1667,64.6667 65.5,64C 66.0442,63.2828 66.7109,62.7828 67.5,62.5 Z"/></g>
<g><path style="opacity:1" fill="#878787" d="M 67.5,62.5 C 66.6016,61.8423 65.6016,61.1757 64.5,60.5C 66.5,59.1667 68.5,59.1667 70.5,60.5C 69.9953,61.9185 68.9953,62.5852 67.5,62.5 Z"/></g>
<g><path style="opacity:1" fill="#4c4c4c" d="M 65.5,54.5 C 66.3697,52.4012 67.703,52.0679 69.5,53.5C 71.2298,57.6062 69.8965,59.1062 65.5,58C 64.2089,56.7083 64.2089,55.5417 65.5,54.5 Z"/></g>
<g><path style="opacity:1" fill="#f2f2f2" d="M 65.5,54.5 C 66.9778,54.238 68.3112,54.5713 69.5,55.5C 67.5365,58.1939 66.2032,57.8606 65.5,54.5 Z"/></g>
<g><path style="opacity:1" fill="#767676" d="M 66.5,35.5 C 67.3984,36.1577 68.3984,36.8243 69.5,37.5C 67.9223,38.2978 66.2556,38.7978 64.5,39C 71.0766,40.6192 71.0766,42.4525 64.5,44.5C 64.737,42.7202 64.4036,40.7202 63.5,38.5C 63.5159,36.484 64.5159,35.484 66.5,35.5 Z"/></g>
<g><path style="opacity:1" fill="#838383" d="M 66.5,35.5 C 65.6016,34.8423 64.6016,34.1757 63.5,33.5C 65.5,32.1667 67.5,32.1667 69.5,33.5C 68.9953,34.9185 67.9953,35.5852 66.5,35.5 Z"/></g>
<g><path style="opacity:1" fill="#888888" d="M 168.5,127.5 C 170.595,128.412 172.595,129.579 174.5,131C 173.167,131.333 171.833,131.667 170.5,132C 171.451,132.718 171.617,133.551 171,134.5C 167.838,132.845 167.005,130.512 168.5,127.5 Z"/></g>
<g><path style="opacity:1" fill="#747474" d="M 121.5,133.5 C 127.31,132.51 133.31,132.177 139.5,132.5C 136.167,133.167 132.833,133.833 129.5,134.5C 127.167,134.5 124.833,134.5 122.5,134.5C 122.5,133.833 122.167,133.5 121.5,133.5 Z"/></g>
<g><path style="opacity:1" fill="#383838" d="M 143.5,133.5 C 143.5,133.833 143.5,134.167 143.5,134.5C 143.5,136.5 143.5,138.5 143.5,140.5C 141.784,140.371 140.117,140.038 138.5,139.5C 138.5,137.833 138.5,136.167 138.5,134.5C 135.5,134.5 132.5,134.5 129.5,134.5C 132.833,133.833 136.167,133.167 139.5,132.5C 139.5,131.833 139.5,131.167 139.5,130.5C 139.351,129.448 139.517,128.448 140,127.5C 140.333,130.833 140.667,134.167 141,137.5C 141.29,135.889 142.123,134.556 143.5,133.5 Z"/></g>
<g><path style="opacity:1" fill="#080808" d="M 143.5,134.5 C 143.5,134.167 143.5,133.833 143.5,133.5C 148.833,133.5 154.167,133.5 159.5,133.5C 159.167,134.5 158.5,135.167 157.5,135.5C 152.93,134.559 148.263,134.226 143.5,134.5 Z"/></g>
<g><path style="opacity:1" fill="#4e4e4e" d="M 163.5,132.5 C 166.402,132.823 168.235,134.156 169,136.5C 167.442,135.655 166.442,136.321 166,138.5C 164.878,136.593 164.045,134.593 163.5,132.5 Z"/></g>
<g><path style="opacity:1" fill="#343434" d="M 92.5,133.5 C 95.1667,135.5 97.5,137.833 99.5,140.5C 96.1667,139.167 93.8333,136.833 92.5,133.5 Z"/></g>
<g><path style="opacity:1" fill="#444444" d="M 109.5,135.5 C 111.749,136.08 113.415,137.413 114.5,139.5C 112.251,138.92 110.585,137.587 109.5,135.5 Z"/></g>
<g><path style="opacity:1" fill="#c3c3c3" d="M 118.5,140.5 C 117.167,140.167 115.833,139.833 114.5,139.5C 113.415,137.413 111.749,136.08 109.5,135.5C 111.635,133.631 114.302,132.964 117.5,133.5C 116.472,136.277 116.805,138.61 118.5,140.5 Z"/></g>
<g><path style="opacity:1" fill="#e6e6e6" d="M 122.5,134.5 C 124.833,134.5 127.167,134.5 129.5,134.5C 132.5,134.5 135.5,134.5 138.5,134.5C 138.5,136.167 138.5,137.833 138.5,139.5C 138.082,140.222 137.416,140.722 136.5,141C 137.833,141.333 139.167,141.667 140.5,142C 136.844,142.836 133.51,142.169 130.5,140C 131.167,139.667 131.833,139.333 132.5,139C 130.833,138.667 129.167,138.333 127.5,138C 130.576,137.654 133.576,136.988 136.5,136C 131.665,135.223 126.998,135.723 122.5,137.5C 122.5,136.5 122.5,135.5 122.5,134.5 Z"/></g>
<g><path style="opacity:1" fill="#b8b8b8" d="M 113.5,150.5 C 112.609,149.89 111.609,149.557 110.5,149.5C 107.527,147.194 104.86,144.527 102.5,141.5C 103.412,139.405 104.579,137.405 106,135.5C 107.5,136.667 109,137.833 110.5,139C 109.273,140.587 109.606,141.921 111.5,143C 110.167,143 108.833,143 107.5,143C 109.32,143.979 110.487,145.479 111,147.5C 111.941,142.48 114.108,141.647 117.5,145C 115.925,144.621 114.425,144.788 113,145.5C 112.833,145.833 112.667,146.167 112.5,146.5C 113.376,147.251 114.376,147.751 115.5,148C 114.619,148.708 113.953,149.542 113.5,150.5 Z"/></g>
<g><path style="opacity:1" fill="#323232" d="M 121.5,133.5 C 122.167,133.5 122.5,133.833 122.5,134.5C 122.5,135.5 122.5,136.5 122.5,137.5C 120.277,138.181 118.944,139.181 118.5,140.5C 116.805,138.61 116.472,136.277 117.5,133.5C 114.302,132.964 111.635,133.631 109.5,135.5C 108.167,134.833 107.167,133.833 106.5,132.5C 110.167,132.5 113.833,132.5 117.5,132.5C 117.338,130.473 117.505,128.473 118,126.5C 119.014,130.099 119.847,133.765 120.5,137.5C 121.429,136.311 121.762,134.978 121.5,133.5 Z"/></g>
<g><path style="opacity:1" fill="#c1c1c1" d="M 143.5,134.5 C 148.263,134.226 152.93,134.559 157.5,135.5C 157.027,136.906 156.027,137.573 154.5,137.5C 151.6,138.895 148.6,140.061 145.5,141C 145.833,141.333 146.167,141.667 146.5,142C 144.881,142.236 143.881,143.069 143.5,144.5C 140.753,147.207 137.42,148.873 133.5,149.5C 130.833,148.833 128.167,148.167 125.5,147.5C 125.027,146.094 124.027,145.427 122.5,145.5C 121.738,143.738 120.404,142.738 118.5,142.5C 118.5,141.833 118.5,141.167 118.5,140.5C 118.944,139.181 120.277,138.181 122.5,137.5C 126.998,135.723 131.665,135.223 136.5,136C 133.576,136.988 130.576,137.654 127.5,138C 129.167,138.333 130.833,138.667 132.5,139C 131.833,139.333 131.167,139.667 130.5,140C 133.51,142.169 136.844,142.836 140.5,142C 139.167,141.667 137.833,141.333 136.5,141C 137.416,140.722 138.082,140.222 138.5,139.5C 140.117,140.038 141.784,140.371 143.5,140.5C 143.5,138.5 143.5,136.5 143.5,134.5 Z"/></g>
<g><path style="opacity:1" fill="#656565" d="M 160.5,135.5 C 161.381,137.304 162.714,138.804 164.5,140C 163.5,140.333 162.5,140.667 161.5,141C 162.696,141.654 162.696,142.154 161.5,142.5C 160.155,141.653 159.155,140.487 158.5,139C 159.973,138.29 160.64,137.124 160.5,135.5 Z"/></g>
<g><path style="opacity:1" fill="#575757" d="M 180.5,126.5 C 175.833,134.5 169.5,140.833 161.5,145.5C 166.105,141.398 170.605,137.064 175,132.5C 175.182,130.67 174.682,129.003 173.5,127.5C 174.721,128.028 175.887,128.695 177,129.5C 178.039,128.29 179.206,127.29 180.5,126.5 Z"/></g>
<g><path style="opacity:1" fill="#3e3e3e" d="M 114.5,139.5 C 115.833,139.833 117.167,140.167 118.5,140.5C 118.5,141.167 118.5,141.833 118.5,142.5C 116.596,142.262 115.262,141.262 114.5,139.5 Z"/></g>
<g><path style="opacity:1" fill="#545454" d="M 154.5,137.5 C 151.35,140.579 147.683,142.913 143.5,144.5C 143.881,143.069 144.881,142.236 146.5,142C 146.167,141.667 145.833,141.333 145.5,141C 148.6,140.061 151.6,138.895 154.5,137.5 Z"/></g>
<g><path style="opacity:1" fill="#2f2f2f" d="M 99.5,140.5 C 100.609,140.557 101.609,140.89 102.5,141.5C 104.86,144.527 107.527,147.194 110.5,149.5C 105.887,147.544 102.22,144.544 99.5,140.5 Z"/></g>
<g><path style="opacity:1" fill="#464646" d="M 118.5,142.5 C 120.404,142.738 121.738,143.738 122.5,145.5C 120.596,145.262 119.262,144.262 118.5,142.5 Z"/></g>
<g><path style="opacity:1" fill="#3d3d3d" d="M 153.5,141.5 C 154.621,143.316 155.121,145.316 155,147.5C 154.167,146.667 153.333,145.833 152.5,145C 153.337,143.989 153.67,142.822 153.5,141.5 Z"/></g>
<g><path style="opacity:1" fill="#393939" d="M 122.5,145.5 C 124.027,145.427 125.027,146.094 125.5,147.5C 123.973,147.573 122.973,146.906 122.5,145.5 Z"/></g>
<g><path style="opacity:1" fill="#9b9b9b" d="M 146.5,145.5 C 149.257,145.378 151.257,146.545 152.5,149C 151.004,149.507 149.837,149.007 149,147.5C 147.148,149.23 147.314,150.396 149.5,151C 145.83,150.836 144.83,149.003 146.5,145.5 Z"/></g>
<g><path style="opacity:1" fill="#7b7b7b" d="M 125.5,147.5 C 128.167,148.167 130.833,148.833 133.5,149.5C 132.766,150.708 132.433,152.041 132.5,153.5C 131.5,153.5 130.5,153.5 129.5,153.5C 129.804,152.85 130.137,152.183 130.5,151.5C 128.581,150.388 126.914,149.054 125.5,147.5 Z"/></g>
<g><path style="opacity:1" fill="#6a6a6a" d="M 118.5,145.5 C 119.774,146.189 119.774,147.023 118.5,148C 120.085,148.085 121.418,148.251 122.5,148.5C 121.5,149.833 120.5,151.167 119.5,152.5C 119.331,151.603 118.998,150.603 118.5,149.5C 117.549,150.326 116.549,150.492 115.5,150C 116.883,148.729 117.883,147.229 118.5,145.5 Z"/></g>
<g><path style="opacity:1" fill="#5d5d5d" d="M 143.5,149.5 C 141.5,149.5 140.5,150.5 140.5,152.5C 139.427,151.749 139.26,150.749 140,149.5C 141.292,148.209 142.458,148.209 143.5,149.5 Z"/></g>
<g><path style="opacity:1" fill="#3d3d3d" d="M 161.5,145.5 C 160.008,148.323 157.674,149.99 154.5,150.5C 156.55,148.453 158.883,146.786 161.5,145.5 Z"/></g>
<g><path style="opacity:1" fill="#717171" d="M 123.5,149.5 C 124.826,151.123 126.159,152.123 127.5,152.5C 125.249,157.941 124.082,157.607 124,151.5C 123.346,152.696 122.846,152.696 122.5,151.5C 122.863,150.817 123.196,150.15 123.5,149.5 Z"/></g>
<g><path style="opacity:1" fill="#e4e4e4" d="M 143.5,149.5 C 143.833,150.833 144.167,152.167 144.5,153.5C 143.041,153.567 141.708,153.234 140.5,152.5C 140.5,150.5 141.5,149.5 143.5,149.5 Z"/></g>
<g><path style="opacity:1" fill="#393939" d="M 110.5,149.5 C 111.609,149.557 112.609,149.89 113.5,150.5C 116.681,152.592 119.681,154.925 122.5,157.5C 117.803,155.822 113.803,153.156 110.5,149.5 Z"/></g>
<g><path style="opacity:1" fill="#303030" d="M 143.5,149.5 C 145.519,150.538 145.853,151.872 144.5,153.5C 144.167,152.167 143.833,150.833 143.5,149.5 Z"/></g>
<g><path style="opacity:1" fill="#363636" d="M 154.5,150.5 C 153.341,152.25 151.674,153.25 149.5,153.5C 150.659,151.75 152.326,150.75 154.5,150.5 Z"/></g>
<g><path style="opacity:1" fill="#919191" d="M 129.5,153.5 C 130.5,153.5 131.5,153.5 132.5,153.5C 133.598,154.601 133.765,155.934 133,157.5C 128.825,158.803 127.659,157.469 129.5,153.5 Z"/></g>
<g><path style="opacity:1" fill="#434343" d="M 140.5,152.5 C 141.708,153.234 143.041,153.567 144.5,153.5C 144.083,154.124 143.416,154.457 142.5,154.5C 141.287,154.253 140.62,153.586 140.5,152.5 Z"/></g>
<g><path style="opacity:1" fill="#555555" d="M 149.5,153.5 C 143.171,158.888 135.838,161.388 127.5,161C 125.416,160.303 123.749,159.136 122.5,157.5C 125.271,158.633 128.104,159.633 131,160.5C 133.634,160.066 136.134,159.233 138.5,158C 135.968,157.388 135.135,155.888 136,153.5C 136.708,156.268 138.208,157.101 140.5,156C 139.304,156.654 139.304,157.154 140.5,157.5C 143.404,155.88 146.404,154.547 149.5,153.5 Z"/></g>
</svg>
